<?xml version="1.0" encoding="UTF-8" standalone="no"?>
<!DOCTYPE svg PUBLIC "-//W3C//DTD SVG 1.1//EN" "http://www.w3.org/Graphics/SVG/1.1/DTD/svg11.dtd">
<svg xmlns="http://www.w3.org/2000/svg" version="1.1" viewBox="0.00 0.00 256.00 256.00">
  <g stroke-width="2.00" fill="none" stroke-linecap="butt">
    <path stroke="#72a8fc" vector-effect="non-scaling-stroke"
      d="
  M 215.00 61.51
  Q 213.82 70.57 215.09 79.98"
    />
    <path stroke="#b1cdfd" vector-effect="non-scaling-stroke"
      d="
  M 112.64 155.50
  Q 112.94 155.56 113.06 155.07
  A 0.03 0.01 -63.4 0 1 113.09 155.04
  L 113.28 155.26
  Q 113.52 155.53 113.69 155.21
  Q 114.73 153.13 116.75 153.02"
    />
    <path stroke="#d0e1fe" vector-effect="non-scaling-stroke"
      d="
  M 116.75 153.02
  L 116.76 208.50
  Q 116.76 209.00 117.26 209.00
  L 210.00 209.00
  A 0.50 0.50 0.0 0 0 210.50 208.50
  L 210.50 46.52
  A 0.53 0.52 -90.0 0 0 209.98 45.99
  L 159.00 45.99"
    />
    <path stroke="#b1cdfd" vector-effect="non-scaling-stroke"
      d="
  M 159.00 45.99
  L 167.76 36.63
  A 0.39 0.39 0.0 0 0 167.42 35.98
  L 156.69 37.57
  A 0.83 0.83 0.0 0 1 155.76 36.55
  L 156.06 35.31"
    />
    <path stroke="#8eb7f6" vector-effect="non-scaling-stroke"
      d="
  M 156.06 35.31
  C 159.78 35.22 163.32 35.18 167.04 35.57
  Q 168.74 35.75 170.55 35.28
  A 0.53 0.53 0.0 0 0 170.91 34.57
  Q 170.71 34.07 169.72 33.83"
    />
    <path stroke="#b1cdfd" vector-effect="non-scaling-stroke"
      d="
  M 169.72 33.83
  C 171.25 32.65 172.97 32.17 174.40 30.98
  Q 178.81 27.30 183.66 24.21
  Q 184.10 23.93 184.22 23.42
  L 184.48 22.27"
    />
    <path stroke="#9ec1f7" vector-effect="non-scaling-stroke"
      d="
  M 169.72 33.83
  Q 163.15 34.02 156.50 34.25
  Q 155.75 34.28 156.06 35.31"
    />
    <path stroke="#e0ebfe" vector-effect="non-scaling-stroke"
      d="
  M 159.00 45.99
  L 117.19 45.99
  A 0.38 0.37 90.0 0 0 116.82 46.37
  L 116.75 153.02"
    />
    <path stroke="#82b2fd" vector-effect="non-scaling-stroke" d="
  M 112.69 92.49
  L 112.72 79.28"
    />
    <path stroke="#82b2fd" vector-effect="non-scaling-stroke" d="
  M 112.71 75.74
  L 112.69 62.32"
    />
    <path stroke="#82b2fd" vector-effect="non-scaling-stroke" d="
  M 112.71 54.00
  L 112.66 45.97"
    />
    <path stroke="#853656" vector-effect="non-scaling-stroke"
      d="
  M 96.69 70.38
  L 77.57 67.97
  A 0.72 0.71 -13.8 0 1 77.08 67.68
  Q 76.97 67.53 76.97 67.43"
    />
    <path stroke="#917390" vector-effect="non-scaling-stroke"
      d="
  M 92.07 75.82
  Q 89.92 74.66 92.10 72.43
  Q 92.56 71.95 92.14 71.43
  L 91.44 70.57
  A 0.70 0.69 -36.7 0 0 90.51 70.44
  Q 87.91 72.20 84.97 71.55
  Q 84.48 71.44 84.13 71.08
  C 81.97 68.84 80.07 70.17 77.53 70.57"
    />
    <path stroke="#853656" vector-effect="non-scaling-stroke"
      d="
  M 77.53 70.57
  Q 76.91 70.39 77.10 70.60"
    />
    <path stroke="#917390" vector-effect="non-scaling-stroke" d="
  M 94.71 79.54
  L 88.17 84.36"
    />
    <path stroke="#f2807b" vector-effect="non-scaling-stroke"
      d="
  M 77.26 73.25
  L 78.31 72.86
  A 0.55 0.55 0.0 0 0 78.13 71.80
  Q 77.17 71.79 77.53 70.57"
    />
    <path stroke="#6276b4" vector-effect="non-scaling-stroke"
      d="
  M 111.08 129.88
  Q 100.75 131.22 92.23 128.08
  Q 91.73 127.90 91.21 128.00
  Q 87.46 128.79 84.11 128.05"
    />
    <path stroke="#917390" vector-effect="non-scaling-stroke"
      d="
  M 57.79 105.19
  L 59.00 100.88
  A 1.20 1.19 -4.6 0 1 59.63 100.14
  Q 60.88 99.54 60.25 99.08"
    />
    <path stroke="#8eb7f6" vector-effect="non-scaling-stroke"
      d="
  M 92.96 177.74
  C 91.15 183.87 87.74 189.85 85.95 194.91
  C 83.93 200.61 82.28 206.90 79.38 212.18"
    />
    <path stroke="#72a8fc" vector-effect="non-scaling-stroke" d="
  M 74.37 218.11
  L 62.43 218.39"
    />
    <path stroke="#8eb7f6" vector-effect="non-scaling-stroke"
      d="
  M 69.97 177.24
  Q 76.16 154.85 83.28 133.10
  Q 83.43 132.63 83.24 132.18
  L 82.84 131.25"
    />
    <path stroke="#917390" vector-effect="non-scaling-stroke"
      d="
  M 55.25 93.92
  L 56.73 96.99
  Q 57.00 97.54 56.42 97.73
  Q 54.33 98.42 53.21 96.60
  Q 52.96 96.21 52.49 96.17
  Q 48.39 95.90 45.37 94.07"
    />
    <path stroke="#5f9cf6" vector-effect="non-scaling-stroke" d="
  M 96.98 218.41
  L 85.45 218.44"
    />
    <path stroke="#b1cdfd" vector-effect="non-scaling-stroke"
      d="
  M 169.69 219.37
  A 6.39 6.39 0.0 0 0 163.30 212.98
  A 6.39 6.39 0.0 0 0 156.91 219.37
  A 6.39 6.39 0.0 0 0 163.30 225.76
  A 6.39 6.39 0.0 0 0 169.69 219.37"
    />
    <path stroke="#b1cdfd" vector-effect="non-scaling-stroke"
      d="
  M 145.97 32.31
  Q 145.08 32.47 144.41 32.96
  Q 143.97 33.28 144.14 33.80
  Q 144.60 35.18 145.86 35.05"
    />
    <path stroke="#e0ebfe" vector-effect="non-scaling-stroke"
      d="
  M 145.86 35.05
  Q 146.16 37.01 147.81 35.83"
    />
    <path stroke="#82b2fd" vector-effect="non-scaling-stroke"
      d="
  M 147.81 35.83
  Q 149.03 38.54 150.56 35.84
  Q 150.80 35.40 150.65 34.92
  Q 150.15 33.29 148.88 33.46"
    />
    <path stroke="#e0ebfe" vector-effect="non-scaling-stroke"
      d="
  M 148.88 33.46
  Q 147.15 31.40 145.97 32.31"
    />
    <path stroke="#a1c6fe" vector-effect="non-scaling-stroke"
      d="
  M 148.88 33.46
  Q 149.81 34.39 147.81 35.83"
    />
    <path stroke="#d0e1fe" vector-effect="non-scaling-stroke"
      d="
  M 145.86 35.05
  Q 147.43 33.82 145.97 32.31"
    />
    <path stroke="#e0ebfe" vector-effect="non-scaling-stroke"
      d="
  M 183.25 83.11
  A 19.49 19.49 0.0 0 0 163.76 63.62
  A 19.49 19.49 0.0 0 0 144.27 83.11
  A 19.49 19.49 0.0 0 0 163.76 102.60
  A 19.49 19.49 0.0 0 0 183.25 83.11"
    />
    <path stroke="#f4f4f4" vector-effect="non-scaling-stroke"
      d="
  M 203.75 115.92
  A 0.42 0.42 0.0 0 0 203.33 115.50
  L 124.43 115.50
  A 0.42 0.42 0.0 0 0 124.01 115.92
  L 124.01 132.58
  A 0.42 0.42 0.0 0 0 124.43 133.00
  L 203.33 133.00
  A 0.42 0.42 0.0 0 0 203.75 132.58
  L 203.75 115.92"
    />
    <path stroke="#f4f4f4" vector-effect="non-scaling-stroke"
      d="
  M 203.50 138.62
  A 0.62 0.62 0.0 0 0 202.88 138.00
  L 124.38 138.00
  A 0.62 0.62 0.0 0 0 123.76 138.62
  L 123.76 154.88
  A 0.62 0.62 0.0 0 0 124.38 155.50
  L 202.88 155.50
  A 0.62 0.62 0.0 0 0 203.50 154.88
  L 203.50 138.62"
    />
    <path stroke="#f3a1a0" vector-effect="non-scaling-stroke"
      d="
  M 188.3388 179.5672
  A 7.67 7.67 0.0 0 0 180.6554 171.9106
  L 146.9555 171.9694
  A 7.67 7.67 0.0 0 0 139.2989 179.6528
  L 139.3012 180.9728
  A 7.67 7.67 0.0 0 0 146.9846 188.6294
  L 180.6845 188.5706
  A 7.67 7.67 0.0 0 0 188.3411 180.8872
  L 188.3388 179.5672"
    />
    <path stroke="#7280b4" vector-effect="non-scaling-stroke"
      d="
  M 160.10 81.37
  Q 154.66 83.78 153.68 89.60
  Q 153.57 90.25 154.23 90.25
  L 173.70 90.25
  Q 174.27 90.25 174.16 89.69
  Q 173.06 83.90 167.72 81.50
  Q 167.17 81.26 167.49 80.75
  C 174.71 69.35 152.61 69.31 160.26 80.80
  Q 160.52 81.19 160.10 81.37"
    />
    <path stroke="#8689aa" vector-effect="non-scaling-stroke"
      d="
  M 191.68 124.79
  A 1.99 1.99 0.0 0 0 189.69 122.80
  L 137.35 122.80
  A 1.99 1.99 0.0 0 0 135.36 124.79
  L 135.36 124.87
  A 1.99 1.99 0.0 0 0 137.35 126.86
  L 189.69 126.86
  A 1.99 1.99 0.0 0 0 191.68 124.87
  L 191.68 124.79"
    />
    <path stroke="#8689aa" vector-effect="non-scaling-stroke"
      d="
  M 140.03 147.25
  A 2.04 2.04 0.0 0 0 137.99 145.21
  A 2.04 2.04 0.0 0 0 135.95 147.25
  A 2.04 2.04 0.0 0 0 137.99 149.29
  A 2.04 2.04 0.0 0 0 140.03 147.25"
    />
    <path stroke="#8689aa" vector-effect="non-scaling-stroke"
      d="
  M 152.68 147.27
  A 2.03 2.03 0.0 0 0 150.65 145.24
  A 2.03 2.03 0.0 0 0 148.62 147.27
  A 2.03 2.03 0.0 0 0 150.65 149.30
  A 2.03 2.03 0.0 0 0 152.68 147.27"
    />
    <path stroke="#8689aa" vector-effect="non-scaling-stroke"
      d="
  M 165.30 147.25
  A 2.04 2.04 0.0 0 0 163.26 145.21
  A 2.04 2.04 0.0 0 0 161.22 147.25
  A 2.04 2.04 0.0 0 0 163.26 149.29
  A 2.04 2.04 0.0 0 0 165.30 147.25"
    />
    <path stroke="#8689aa" vector-effect="non-scaling-stroke"
      d="
  M 177.97 147.28
  A 2.04 2.04 0.0 0 0 175.93 145.24
  A 2.04 2.04 0.0 0 0 173.89 147.28
  A 2.04 2.04 0.0 0 0 175.93 149.32
  A 2.04 2.04 0.0 0 0 177.97 147.28"
    />
    <path stroke="#8689aa" vector-effect="non-scaling-stroke"
      d="
  M 190.57 147.24
  A 2.05 2.05 0.0 0 0 188.52 145.19
  A 2.05 2.05 0.0 0 0 186.47 147.24
  A 2.05 2.05 0.0 0 0 188.52 149.29
  A 2.05 2.05 0.0 0 0 190.57 147.24"
    />
    <path stroke="#e89695" vector-effect="non-scaling-stroke"
      d="
  M 162.03 181.18
  Q 161.42 178.40 158.68 178.25
  A 0.55 0.55 0.0 0 0 158.18 179.09
  L 160.81 183.48
  A 2.51 2.51 0.0 0 0 165.08 183.54
  L 169.30 176.91
  Q 169.78 176.16 168.89 176.11
  L 166.95 175.99
  A 0.89 0.87 17.5 0 0 166.18 176.38
  L 162.93 181.34
  A 0.50 0.49 -34.7 0 1 162.03 181.18"
    />
  </g>
  <path fill="#a1c3fc"
    d="
  M 215.00 61.51
  Q 213.82 70.57 215.09 79.98
  C 215.26 125.63 214.74 171.34 214.77 217.00
  Q 214.78 228.34 206.13 231.65
  Q 202.61 233.00 191.20 233.00
  Q 159.70 232.98 128.19 232.94
  C 115.70 232.92 112.50 224.97 112.48 214.04
  Q 112.42 184.77 112.64 155.50
  Q 112.94 155.56 113.06 155.07
  A 0.03 0.01 -63.4 0 1 113.09 155.04
  L 113.28 155.26
  Q 113.52 155.53 113.69 155.21
  Q 114.73 153.13 116.75 153.02
  L 116.76 208.50
  Q 116.76 209.00 117.26 209.00
  L 210.00 209.00
  A 0.50 0.50 0.0 0 0 210.50 208.50
  L 210.50 46.52
  A 0.53 0.52 -90.0 0 0 209.98 45.99
  L 159.00 45.99
  L 167.76 36.63
  A 0.39 0.39 0.0 0 0 167.42 35.98
  L 156.69 37.57
  A 0.83 0.83 0.0 0 1 155.76 36.55
  L 156.06 35.31
  C 159.78 35.22 163.32 35.18 167.04 35.57
  Q 168.74 35.75 170.55 35.28
  A 0.53 0.53 0.0 0 0 170.91 34.57
  Q 170.71 34.07 169.72 33.83
  C 171.25 32.65 172.97 32.17 174.40 30.98
  Q 178.81 27.30 183.66 24.21
  Q 184.10 23.93 184.22 23.42
  L 184.48 22.27
  C 200.33 21.21 214.72 19.49 214.72 40.68
  Q 214.71 51.31 215.00 61.51
  Z
  M 169.69 219.37
  A 6.39 6.39 0.0 0 0 163.30 212.98
  A 6.39 6.39 0.0 0 0 156.91 219.37
  A 6.39 6.39 0.0 0 0 163.30 225.76
  A 6.39 6.39 0.0 0 0 169.69 219.37
  Z"
  />
  <path fill="#c1d7fd"
    d="
  M 184.48 22.27
  L 184.22 23.42
  Q 184.10 23.93 183.66 24.21
  Q 178.81 27.30 174.40 30.98
  C 172.97 32.17 171.25 32.65 169.72 33.83
  Q 163.15 34.02 156.50 34.25
  Q 155.75 34.28 156.06 35.31
  L 155.76 36.55
  A 0.83 0.83 0.0 0 0 156.69 37.57
  L 167.42 35.98
  A 0.39 0.39 0.0 0 1 167.76 36.63
  L 159.00 45.99
  L 117.19 45.99
  A 0.38 0.37 90.0 0 0 116.82 46.37
  L 116.75 153.02
  Q 114.73 153.13 113.69 155.21
  Q 113.52 155.53 113.28 155.26
  L 113.09 155.04
  A 0.03 0.01 -63.4 0 0 113.06 155.07
  Q 112.94 155.56 112.64 155.50
  L 112.69 92.49
  L 112.72 79.28
  L 112.71 75.74
  L 112.69 62.32
  L 112.71 54.00
  L 112.66 45.97
  C 112.66 40.70 112.01 33.77 114.52 29.29
  C 117.95 23.16 123.10 22.28 130.24 22.27
  Q 157.38 22.22 184.48 22.27
  Z
  M 145.97 32.31
  Q 145.08 32.47 144.41 32.96
  Q 143.97 33.28 144.14 33.80
  Q 144.60 35.18 145.86 35.05
  Q 146.16 37.01 147.81 35.83
  Q 149.03 38.54 150.56 35.84
  Q 150.80 35.40 150.65 34.92
  Q 150.15 33.29 148.88 33.46
  Q 147.15 31.40 145.97 32.31
  Z"
  />
  <path fill="#ffffff"
    d="
  M 148.88 33.46
  Q 149.81 34.39 147.81 35.83
  Q 146.16 37.01 145.86 35.05
  Q 147.43 33.82 145.97 32.31
  Q 147.15 31.40 148.88 33.46
  Z"
  />
  <path fill="#a1c3fc"
    d="
  M 145.97 32.31
  Q 147.43 33.82 145.86 35.05
  Q 144.60 35.18 144.14 33.80
  Q 143.97 33.28 144.41 32.96
  Q 145.08 32.47 145.97 32.31
  Z"
  />
  <path fill="#428dfc"
    d="
  M 147.81 35.83
  Q 149.81 34.39 148.88 33.46
  Q 150.15 33.29 150.65 34.92
  Q 150.80 35.40 150.56 35.84
  Q 149.03 38.54 147.81 35.83
  Z"
  />
  <path fill="#7babf0"
    d="
  M 169.72 33.83
  Q 170.71 34.07 170.91 34.57
  A 0.53 0.53 0.0 0 1 170.55 35.28
  Q 168.74 35.75 167.04 35.57
  C 163.32 35.18 159.78 35.22 156.06 35.31
  Q 155.75 34.28 156.50 34.25
  Q 163.15 34.02 169.72 33.83
  Z"
  />
  <path fill="#ffffff"
    d="
  M 159.00 45.99
  L 209.98 45.99
  A 0.53 0.52 -90.0 0 1 210.50 46.52
  L 210.50 208.50
  A 0.50 0.50 0.0 0 1 210.00 209.00
  L 117.26 209.00
  Q 116.76 209.00 116.76 208.50
  L 116.75 153.02
  L 116.82 46.37
  A 0.38 0.37 -90.0 0 1 117.19 45.99
  L 159.00 45.99
  Z
  M 183.25 83.11
  A 19.49 19.49 0.0 0 0 163.76 63.62
  A 19.49 19.49 0.0 0 0 144.27 83.11
  A 19.49 19.49 0.0 0 0 163.76 102.60
  A 19.49 19.49 0.0 0 0 183.25 83.11
  Z
  M 203.75 115.92
  A 0.42 0.42 0.0 0 0 203.33 115.50
  L 124.43 115.50
  A 0.42 0.42 0.0 0 0 124.01 115.92
  L 124.01 132.58
  A 0.42 0.42 0.0 0 0 124.43 133.00
  L 203.33 133.00
  A 0.42 0.42 0.0 0 0 203.75 132.58
  L 203.75 115.92
  Z
  M 203.50 138.62
  A 0.62 0.62 0.0 0 0 202.88 138.00
  L 124.38 138.00
  A 0.62 0.62 0.0 0 0 123.76 138.62
  L 123.76 154.88
  A 0.62 0.62 0.0 0 0 124.38 155.50
  L 202.88 155.50
  A 0.62 0.62 0.0 0 0 203.50 154.88
  L 203.50 138.62
  Z
  M 188.3388 179.5672
  A 7.67 7.67 0.0 0 0 180.6554 171.9106
  L 146.9555 171.9694
  A 7.67 7.67 0.0 0 0 139.2989 179.6528
  L 139.3012 180.9728
  A 7.67 7.67 0.0 0 0 146.9846 188.6294
  L 180.6845 188.5706
  A 7.67 7.67 0.0 0 0 188.3411 180.8872
  L 188.3388 179.5672
  Z"
  />
  <path fill="#428dfc"
    d="
  M 112.66 45.97
  L 112.71 54.00
  L 111.99 53.80
  Q 111.56 53.68 111.46 53.23
  Q 110.38 48.04 112.66 45.97
  Z"
  />
  <path fill="#e64341"
    d="
  M 96.69 70.38
  L 77.57 67.97
  A 0.72 0.71 -13.8 0 1 77.08 67.68
  Q 76.97 67.53 76.97 67.43
  C 76.77 61.56 79.93 58.29 85.67 58.57
  C 92.06 58.88 97.92 60.76 96.64 68.69
  Q 96.56 69.22 97.09 69.32
  C 98.51 69.56 106.73 70.39 107.17 71.05
  A 0.43 0.43 0.0 0 1 106.75 71.71
  L 96.69 70.38
  Z"
  />
  <path fill="#428dfc"
    d="
  M 215.00 61.51
  Q 216.48 70.62 215.09 79.98
  Q 213.82 70.57 215.00 61.51
  Z"
  />
  <path fill="#428dfc"
    d="
  M 112.69 62.32
  L 112.71 75.74
  C 110.25 76.28 111.27 66.92 111.28 65.44
  C 111.29 64.16 110.61 62.29 112.69 62.32
  Z"
  />
  <path fill="#c1d7fd"
    d="
  M 183.25 83.11
  A 19.49 19.49 0.0 0 1 163.76 102.60
  A 19.49 19.49 0.0 0 1 144.27 83.11
  A 19.49 19.49 0.0 0 1 163.76 63.62
  A 19.49 19.49 0.0 0 1 183.25 83.11
  Z
  M 160.10 81.37
  Q 154.66 83.78 153.68 89.60
  Q 153.57 90.25 154.23 90.25
  L 173.70 90.25
  Q 174.27 90.25 174.16 89.69
  Q 173.06 83.90 167.72 81.50
  Q 167.17 81.26 167.49 80.75
  C 174.71 69.35 152.61 69.31 160.26 80.80
  Q 160.52 81.19 160.10 81.37
  Z"
  />
  <path fill="#23286b"
    d="
  M 76.97 67.43
  Q 76.97 67.53 77.08 67.68
  A 0.72 0.71 -13.8 0 0 77.57 67.97
  L 96.69 70.38
  Q 96.29 74.51 92.07 75.82
  Q 89.92 74.66 92.10 72.43
  Q 92.56 71.95 92.14 71.43
  L 91.44 70.57
  A 0.70 0.69 -36.7 0 0 90.51 70.44
  Q 87.91 72.20 84.97 71.55
  Q 84.48 71.44 84.13 71.08
  C 81.97 68.84 80.07 70.17 77.53 70.57
  Q 76.91 70.39 77.10 70.60
  Q 72.29 70.84 71.99 66.91
  A 1.49 1.48 24.4 0 1 74.66 65.91
  Q 75.49 67.02 76.97 67.43
  Z"
  />
  <path fill="#febdb5"
    d="
  M 92.07 75.82
  L 94.71 79.54
  L 88.17 84.36
  Q 88.11 81.67 86.98 79.48
  Q 86.75 79.04 86.25 79.06
  Q 82.21 79.27 79.57 76.19
  A 0.75 0.74 60.9 0 0 78.79 75.96
  Q 78.01 76.19 77.40 75.78
  Q 76.95 75.46 77.02 74.91
  L 77.26 73.25
  L 78.31 72.86
  A 0.55 0.55 0.0 0 0 78.13 71.80
  Q 77.17 71.79 77.53 70.57
  C 80.07 70.17 81.97 68.84 84.13 71.08
  Q 84.48 71.44 84.97 71.55
  Q 87.91 72.20 90.51 70.44
  A 0.70 0.69 -36.7 0 1 91.44 70.57
  L 92.14 71.43
  Q 92.56 71.95 92.10 72.43
  Q 89.92 74.66 92.07 75.82
  Z"
  />
  <path fill="#e64341"
    d="
  M 77.53 70.57
  Q 77.17 71.79 78.13 71.80
  A 0.55 0.55 0.0 0 1 78.31 72.86
  L 77.26 73.25
  L 77.10 70.60
  Q 76.91 70.39 77.53 70.57
  Z"
  />
  <path fill="#23286b"
    d="
  M 160.26 80.80
  C 152.61 69.31 174.71 69.35 167.49 80.75
  Q 167.17 81.26 167.72 81.50
  Q 173.06 83.90 174.16 89.69
  Q 174.27 90.25 173.70 90.25
  L 154.23 90.25
  Q 153.57 90.25 153.68 89.60
  Q 154.66 83.78 160.10 81.37
  Q 160.52 81.19 160.26 80.80
  Z"
  />
  <path fill="#428dfc"
    d="
  M 112.72 79.28
  L 112.69 92.49
  L 111.88 92.49
  Q 111.25 92.49 111.25 91.86
  L 111.25 80.22
  Q 111.25 79.69 111.76 79.55
  L 112.72 79.28
  Z"
  />
  <path fill="#23286b"
    d="
  M 94.71 79.54
  Q 104.07 87.70 108.44 99.82
  Q 113.97 115.12 111.08 129.88
  Q 100.75 131.22 92.23 128.08
  Q 91.73 127.90 91.21 128.00
  Q 87.46 128.79 84.11 128.05
  C 79.47 125.16 75.97 124.64 70.56 125.62
  C 64.05 126.79 58.66 122.96 54.91 117.96
  Q 54.60 117.54 54.73 117.03
  L 57.79 105.19
  L 59.00 100.88
  A 1.20 1.19 -4.6 0 1 59.63 100.14
  Q 60.88 99.54 60.25 99.08
  L 61.39 98.69
  Q 61.84 98.54 62.24 98.79
  Q 69.68 103.36 78.50 103.01
  C 83.33 102.82 87.44 88.08 88.17 84.36
  L 94.71 79.54
  Z"
  />
  <path fill="#23286b"
    d="
  M 55.25 93.92
  L 56.73 96.99
  Q 57.00 97.54 56.42 97.73
  Q 54.33 98.42 53.21 96.60
  Q 52.96 96.21 52.49 96.17
  Q 48.39 95.90 45.37 94.07
  L 40.52 87.67
  A 0.59 0.58 65.0 0 1 40.85 86.75
  L 47.63 85.14
  Q 48.15 85.02 48.44 85.46
  Q 51.65 90.28 55.25 93.92
  Z"
  />
  <path fill="#febdb5"
    d="
  M 45.37 94.07
  Q 48.39 95.90 52.49 96.17
  Q 52.96 96.21 53.21 96.60
  Q 54.33 98.42 56.42 97.73
  Q 57.00 97.54 56.73 96.99
  L 55.25 93.92
  C 57.56 95.41 57.34 97.68 60.25 99.08
  Q 60.88 99.54 59.63 100.14
  A 1.20 1.19 -4.6 0 0 59.00 100.88
  L 57.79 105.19
  C 54.54 101.18 51.32 101.05 47.11 99.52
  Q 46.60 99.33 46.40 98.83
  Q 45.34 96.13 42.75 94.92
  A 0.43 0.42 45.2 0 1 42.75 94.15
  Q 43.69 93.73 45.37 94.07
  Z"
  />
  <path fill="#e9e9e9"
    d="
  M 203.75 132.58
  A 0.42 0.42 0.0 0 1 203.33 133.00
  L 124.43 133.00
  A 0.42 0.42 0.0 0 1 124.01 132.58
  L 124.01 115.92
  A 0.42 0.42 0.0 0 1 124.43 115.50
  L 203.33 115.50
  A 0.42 0.42 0.0 0 1 203.75 115.92
  L 203.75 132.58
  Z
  M 191.68 124.79
  A 1.99 1.99 0.0 0 0 189.69 122.80
  L 137.35 122.80
  A 1.99 1.99 0.0 0 0 135.36 124.79
  L 135.36 124.87
  A 1.99 1.99 0.0 0 0 137.35 126.86
  L 189.69 126.86
  A 1.99 1.99 0.0 0 0 191.68 124.87
  L 191.68 124.79
  Z"
  />
  <rect fill="#23286b" x="135.36" y="122.80" width="56.32" height="4.06" rx="1.99" />
  <path fill="#a1c3fc"
    d="
  M 84.11 128.05
  Q 87.46 128.79 91.21 128.00
  Q 91.73 127.90 92.23 128.08
  Q 100.75 131.22 111.08 129.88
  Q 108.27 143.54 102.03 154.77
  C 97.90 162.19 93.94 168.55 92.96 177.74
  C 91.15 183.87 87.74 189.85 85.95 194.91
  C 83.93 200.61 82.28 206.90 79.38 212.18
  Q 77.34 215.55 74.37 218.11
  L 62.43 218.39
  L 61.00 218.21
  Q 60.38 218.13 60.52 217.52
  L 69.97 177.24
  Q 76.16 154.85 83.28 133.10
  Q 83.43 132.63 83.24 132.18
  L 82.84 131.25
  L 84.11 128.05
  Z"
  />
  <path fill="#7babf0"
    d="
  M 82.84 131.25
  L 83.24 132.18
  Q 83.43 132.63 83.28 133.10
  Q 76.16 154.85 69.97 177.24
  Q 67.57 169.74 69.50 163.75
  Q 74.39 148.59 82.84 131.25
  Z"
  />
  <path fill="#e9e9e9"
    d="
  M 203.50 154.88
  A 0.62 0.62 0.0 0 1 202.88 155.50
  L 124.38 155.50
  A 0.62 0.62 0.0 0 1 123.76 154.88
  L 123.76 138.62
  A 0.62 0.62 0.0 0 1 124.38 138.00
  L 202.88 138.00
  A 0.62 0.62 0.0 0 1 203.50 138.62
  L 203.50 154.88
  Z
  M 140.03 147.25
  A 2.04 2.04 0.0 0 0 137.99 145.21
  A 2.04 2.04 0.0 0 0 135.95 147.25
  A 2.04 2.04 0.0 0 0 137.99 149.29
  A 2.04 2.04 0.0 0 0 140.03 147.25
  Z
  M 152.68 147.27
  A 2.03 2.03 0.0 0 0 150.65 145.24
  A 2.03 2.03 0.0 0 0 148.62 147.27
  A 2.03 2.03 0.0 0 0 150.65 149.30
  A 2.03 2.03 0.0 0 0 152.68 147.27
  Z
  M 165.30 147.25
  A 2.04 2.04 0.0 0 0 163.26 145.21
  A 2.04 2.04 0.0 0 0 161.22 147.25
  A 2.04 2.04 0.0 0 0 163.26 149.29
  A 2.04 2.04 0.0 0 0 165.30 147.25
  Z
  M 177.97 147.28
  A 2.04 2.04 0.0 0 0 175.93 145.24
  A 2.04 2.04 0.0 0 0 173.89 147.28
  A 2.04 2.04 0.0 0 0 175.93 149.32
  A 2.04 2.04 0.0 0 0 177.97 147.28
  Z
  M 190.57 147.24
  A 2.05 2.05 0.0 0 0 188.52 145.19
  A 2.05 2.05 0.0 0 0 186.47 147.24
  A 2.05 2.05 0.0 0 0 188.52 149.29
  A 2.05 2.05 0.0 0 0 190.57 147.24
  Z"
  />
  <circle fill="#23286b" cx="137.99" cy="147.25" r="2.04" />
  <circle fill="#23286b" cx="150.65" cy="147.27" r="2.03" />
  <circle fill="#23286b" cx="163.26" cy="147.25" r="2.04" />
  <circle fill="#23286b" cx="175.93" cy="147.28" r="2.04" />
  <circle fill="#23286b" cx="188.52" cy="147.24" r="2.05" />
  <path fill="#e64341"
    d="
  M 188.3411 180.8872
  A 7.67 7.67 0.0 0 1 180.6845 188.5706
  L 146.9846 188.6294
  A 7.67 7.67 0.0 0 1 139.3012 180.9728
  L 139.2989 179.6528
  A 7.67 7.67 0.0 0 1 146.9555 171.9694
  L 180.6554 171.9106
  A 7.67 7.67 0.0 0 1 188.3388 179.5672
  L 188.3411 180.8872
  Z
  M 162.03 181.18
  Q 161.42 178.40 158.68 178.25
  A 0.55 0.55 0.0 0 0 158.18 179.09
  L 160.81 183.48
  A 2.51 2.51 0.0 0 0 165.08 183.54
  L 169.30 176.91
  Q 169.78 176.16 168.89 176.11
  L 166.95 175.99
  A 0.89 0.87 17.5 0 0 166.18 176.38
  L 162.93 181.34
  A 0.50 0.49 -34.7 0 1 162.03 181.18
  Z"
  />
  <path fill="#e9e9e9"
    d="
  M 162.93 181.34
  L 166.18 176.38
  A 0.89 0.87 17.5 0 1 166.95 175.99
  L 168.89 176.11
  Q 169.78 176.16 169.30 176.91
  L 165.08 183.54
  A 2.51 2.51 0.0 0 1 160.81 183.48
  L 158.18 179.09
  A 0.55 0.55 0.0 0 1 158.68 178.25
  Q 161.42 178.40 162.03 181.18
  A 0.50 0.49 -34.7 0 0 162.93 181.34
  Z"
  />
  <path fill="#7babf0"
    d="
  M 92.96 177.74
  Q 96.14 188.70 94.97 199.50
  Q 94.79 201.11 96.51 205.16
  C 98.51 209.88 98.49 213.79 96.98 218.41
  L 85.45 218.44
  L 81.95 218.21
  Q 81.39 218.17 81.21 217.64
  L 79.38 212.18
  C 82.28 206.90 83.93 200.61 85.95 194.91
  C 87.74 189.85 91.15 183.87 92.96 177.74
  Z"
  />
  <circle fill="#c1d7fd" cx="163.30" cy="219.37" r="6.39" />
  <path fill="#428dfc"
    d="
  M 74.37 218.11
  L 76.63 224.45
  Q 76.79 224.90 77.20 224.66
  Q 81.65 221.99 85.45 218.44
  L 96.98 218.41
  L 101.85 231.97
  A 0.40 0.39 80.1 0 1 101.48 232.50
  L 44.03 232.83
  A 0.47 0.47 0.0 0 1 43.66 232.06
  C 45.37 229.99 47.18 228.42 49.83 227.19
  Q 56.76 223.96 62.43 218.39
  L 74.37 218.11
  Z"
  />
</svg>